<svg width="30" height="27" viewBox="0 0 30 27" fill="none" xmlns="http://www.w3.org/2000/svg">
<path d="M27.2548 10.3772C27.2478 10.3702 27.2408 10.3652 27.2338 10.3582L16.8698 0.79125C15.7278 -0.26475 13.9408 -0.26275 12.7998 0.79125L2.43581 10.3582C2.42881 10.3652 2.42181 10.3702 2.41481 10.3772L0.321808 12.3092C-0.0841921 12.6832 -0.109192 13.3163 0.264808 13.7223C0.639808 14.1273 1.27181 14.1543 1.67781 13.7783L2.12781 13.3623V23.8143C2.12781 25.4683 3.47381 26.8143 5.12781 26.8143H11.1018H18.5668H24.5408C26.1948 26.8143 27.5408 25.4683 27.5408 23.8143V13.3623L27.9908 13.7783C28.1828 13.9563 28.4268 14.0442 28.6688 14.0442C28.9388 14.0442 29.2068 13.9363 29.4038 13.7233C29.7788 13.3173 29.7528 12.6843 29.3468 12.3103L27.2548 10.3772ZM12.1028 24.8143V16.6263H17.5678V24.8143H12.1028ZM25.5418 23.8143C25.5418 24.3663 25.0928 24.8143 24.5418 24.8143H19.5678V16.6263C19.5678 15.5233 18.6708 14.6263 17.5678 14.6263H12.1028C10.9998 14.6263 10.1028 15.5233 10.1028 16.6263V24.8143H5.12781C4.57681 24.8143 4.12781 24.3663 4.12781 23.8143V11.5162L14.1568 2.25925C14.5368 1.90825 15.1318 1.90625 15.5128 2.25925L25.5408 11.5162V23.8143H25.5418Z" fill="#343A40"/>
</svg>
