<svg width="37" height="46" viewBox="0 0 37 46" fill="none" xmlns="http://www.w3.org/2000/svg">
<path d="M34.658 6.326H26.243V5.883C26.243 5.149 25.648 4.554 24.914 4.554H22.81V4.423C22.81 2.025 20.738 0 18.285 0C15.737 0 13.58 2.118 13.512 4.554H11.516C10.782 4.554 10.187 5.149 10.187 5.883V6.326H1.772C0.794 6.326 0 7.119 0 8.098V43.974C0 44.952 0.793 45.746 1.772 45.746H34.658C35.636 45.746 36.43 44.953 36.43 43.974V8.097C36.43 7.119 35.636 6.326 34.658 6.326ZM18.285 2.657C19.28 2.657 20.153 3.482 20.153 4.423V4.554H16.173C16.241 3.557 17.179 2.657 18.285 2.657ZM12.845 7.211H23.585V10.311H12.845V7.211ZM32.886 42.201H3.544V9.869H10.188V11.641C10.188 12.375 10.783 12.97 11.517 12.97H24.915C25.649 12.97 26.244 12.375 26.244 11.641V9.869H32.888V42.201H32.886ZM13.91 16.283C14.429 16.802 14.429 17.643 13.91 18.162L9.854 22.218C9.605 22.467 9.267 22.607 8.914 22.607C8.561 22.607 8.224 22.467 7.974 22.218L6.335 20.579C5.816 20.06 5.816 19.219 6.335 18.7C6.854 18.181 7.695 18.181 8.214 18.7L8.913 19.399L12.029 16.283C12.55 15.764 13.391 15.764 13.91 16.283ZM17.052 19.17H29.453C30.187 19.17 30.782 19.765 30.782 20.499C30.782 21.233 30.187 21.828 29.453 21.828H17.052C16.318 21.828 15.723 21.233 15.723 20.499C15.724 19.765 16.319 19.17 17.052 19.17ZM13.91 23.939C14.429 24.458 14.429 25.299 13.91 25.818L9.854 29.874C9.605 30.123 9.267 30.263 8.914 30.263C8.561 30.263 8.224 30.123 7.974 29.874L6.335 28.235C5.816 27.716 5.816 26.875 6.335 26.356C6.854 25.837 7.695 25.837 8.214 26.356L8.913 27.055L12.029 23.939C12.55 23.42 13.391 23.42 13.91 23.939ZM30.783 28.139C30.783 28.873 30.188 29.468 29.454 29.468H17.052C16.318 29.468 15.723 28.873 15.723 28.139C15.723 27.405 16.318 26.81 17.052 26.81H29.453C30.188 26.81 30.783 27.405 30.783 28.139ZM13.91 31.596C14.429 32.115 14.429 32.956 13.91 33.475L9.854 37.531C9.595 37.79 9.254 37.92 8.914 37.92C8.574 37.92 8.234 37.79 7.974 37.531L6.335 35.892C5.816 35.373 5.816 34.532 6.335 34.013C6.854 33.494 7.695 33.494 8.214 34.013L8.915 34.712L12.031 31.596C12.55 31.077 13.391 31.077 13.91 31.596ZM30.783 35.779C30.783 36.513 30.188 37.108 29.454 37.108H17.052C16.318 37.108 15.723 36.513 15.723 35.779C15.723 35.045 16.318 34.45 17.052 34.45H29.453C30.188 34.45 30.783 35.045 30.783 35.779Z" fill="#343A40" fill-opacity="0.3"/>
</svg>
