<svg width="80" height="72" viewBox="0 0 80 72" fill="none" xmlns="http://www.w3.org/2000/svg">
<path d="M78 68H68.5625L71.9414 54.4844C72.0151 54.1895 72.0207 53.8816 71.9575 53.5843C71.8944 53.2869 71.7643 53.0078 71.5771 52.7683C71.39 52.5288 71.1506 52.3351 70.8773 52.2019C70.604 52.0688 70.304 51.9997 70 52H38C37.696 51.9997 37.396 52.0688 37.1227 52.2019C36.8494 52.3351 36.61 52.5288 36.4229 52.7683C36.2357 53.0078 36.1056 53.2869 36.0425 53.5843C35.9793 53.8816 35.9849 54.1895 36.0586 54.4844L39.4375 68H29.8394L27.9922 45.834C27.9507 45.3341 27.7229 44.8681 27.3539 44.5284C26.9848 44.1887 26.5016 44.0001 26 44H14C13.4984 44.0001 13.0152 44.1887 12.6461 44.5284C12.2771 44.8681 12.0493 45.3341 12.0078 45.834L10.1606 68H2C1.46957 68 0.96086 68.2107 0.585787 68.5858C0.210714 68.9609 0 69.4696 0 70C0 70.5304 0.210714 71.0391 0.585787 71.4142C0.96086 71.7893 1.46957 72 2 72H78C78.5304 72 79.0391 71.7893 79.4142 71.4142C79.7893 71.0391 80 70.5304 80 70C80 69.4696 79.7893 68.9609 79.4142 68.5858C79.0391 68.2107 78.5304 68 78 68ZM24.16 48L24.4935 52H15.5063L15.8398 48H24.16ZM14.1719 68L15.1726 56H24.8274L25.8281 68H14.1719ZM43.5625 68L40.5625 56H67.4375L64.4375 68H43.5625Z" fill="#343A40"/>
<path d="M2 32H78C78.5304 32 79.0391 31.7893 79.4142 31.4142C79.7893 31.0391 80 30.5304 80 30C80 29.4696 79.7893 28.9609 79.4142 28.5858C79.0391 28.2107 78.5304 28 78 28H69.8394L67.9922 5.834C67.9507 5.33413 67.7229 4.86811 67.3539 4.52839C66.9848 4.18866 66.5016 4.00006 66 4H54C53.4984 4.00006 53.0152 4.18866 52.6461 4.52839C52.2771 4.86811 52.0493 5.33413 52.0078 5.834L50.1606 28H42.8906C43.613 26.0815 43.9886 24.0499 44 22C43.9725 17.9438 42.5613 14.0186 40 10.8733V2C40.0002 1.73731 39.9485 1.47717 39.8481 1.23445C39.7476 0.991724 39.6003 0.771184 39.4146 0.585435C39.2288 0.399687 39.0083 0.252373 38.7656 0.15192C38.5228 0.0514662 38.2627 -0.000157394 38 3.60467e-07H14C13.7373 -0.000157394 13.4772 0.0514662 13.2344 0.15192C12.9917 0.252373 12.7712 0.399687 12.5854 0.585435C12.3997 0.771184 12.2524 0.991724 12.1519 1.23445C12.0515 1.47717 11.9998 1.73731 12 2V10.8733C9.43866 14.0186 8.02754 17.9438 8 22C8.0113 24.0499 8.38684 26.0815 9.1091 28H2C1.46957 28 0.96086 28.2107 0.585787 28.5858C0.210714 28.9609 0 29.4696 0 30C0 30.5304 0.210714 31.0391 0.585787 31.4142C0.96086 31.7893 1.46957 32 2 32ZM64.16 8L64.4935 12H55.5063L55.8398 8H64.16ZM55.1724 16H64.8272L65.8279 28H54.1719L55.1724 16ZM16 4H36V8H16V4ZM12 22C12.0094 20.1303 12.3947 18.2815 13.1328 16.5636C13.871 14.8457 14.947 13.2938 16.2969 12H35.7031C37.053 13.2938 38.129 14.8457 38.8672 16.5636C39.6053 18.2815 39.9906 20.1303 40 22C39.9947 24.0819 39.5109 26.1348 38.5859 28H13.4141C12.4891 26.1348 12.0053 24.0819 12 22V22Z" fill="#343A40"/>
</svg>
