<svg width="72" height="80" viewBox="0 0 72 80" fill="none" xmlns="http://www.w3.org/2000/svg">
<path d="M70 3.60467e-07H6C4.40924 0.00174732 2.88413 0.634449 1.75929 1.75929C0.634449 2.88413 0.00174696 4.40924 0 6V74C0.00174696 75.5908 0.634449 77.1159 1.75929 78.2407C2.88413 79.3656 4.40924 79.9983 6 80H70C70.2627 80.0002 70.5228 79.9485 70.7656 79.8481C71.0083 79.7476 71.2288 79.6003 71.4146 79.4146C71.6003 79.2288 71.7476 79.0083 71.8481 78.7656C71.9485 78.5228 72.0002 78.2627 72 78V2C72.0002 1.73731 71.9485 1.47717 71.8481 1.23445C71.7476 0.991724 71.6003 0.771184 71.4146 0.585435C71.2288 0.399687 71.0083 0.252373 70.7656 0.15192C70.5228 0.0514662 70.2627 -0.000157394 70 3.60467e-07V3.60467e-07ZM4 74V6C4.00069 5.46978 4.21162 4.96147 4.58655 4.58655C4.96147 4.21162 5.46978 4.00069 6 4H8V76H6C5.46978 75.9993 4.96147 75.7884 4.58655 75.4135C4.21162 75.0385 4.00069 74.5302 4 74V74ZM68 76H12V4H68V76Z" fill="#343A40" fill-opacity="0.3"/>
<path d="M48 39.7976V62C48 62.5304 48.2107 63.0391 48.5858 63.4142C48.9609 63.7893 49.4696 64 50 64C50.5304 64 51.0391 63.7893 51.4142 63.4142C51.7893 63.0391 52 62.5304 52 62V39.7976C54.257 39.334 56.2852 38.1063 57.7425 36.3216C59.1998 34.5368 59.9971 32.3041 60 30V20C60 19.4696 59.7893 18.9609 59.4142 18.5858C59.0391 18.2107 58.5304 18 58 18C57.4696 18 56.9609 18.2107 56.5858 18.5858C56.2107 18.9609 56 19.4696 56 20V30C55.9962 31.2368 55.6097 32.4421 54.8935 33.4505C54.1773 34.4588 53.1666 35.2207 52 35.6316V20C52 19.4696 51.7893 18.9609 51.4142 18.5858C51.0391 18.2107 50.5304 18 50 18C49.4696 18 48.9609 18.2107 48.5858 18.5858C48.2107 18.9609 48 19.4696 48 20V35.6316C46.8334 35.2207 45.8227 34.4588 45.1065 33.4505C44.3903 32.4421 44.0038 31.2368 44 30V20C44 19.4696 43.7893 18.9609 43.4142 18.5858C43.0391 18.2107 42.5304 18 42 18C41.4696 18 40.9609 18.2107 40.5858 18.5858C40.2107 18.9609 40 19.4696 40 20V30C40.0029 32.3041 40.8002 34.5368 42.2575 36.3216C43.7148 38.1063 45.743 39.334 48 39.7976V39.7976Z" fill="#343A40" fill-opacity="0.3"/>
<path d="M26 39.7041V62C26 62.5304 26.2107 63.0391 26.5858 63.4142C26.9609 63.7893 27.4696 64 28 64C28.5304 64 29.0391 63.7893 29.4142 63.4142C29.7893 63.0391 30 62.5304 30 62V39.7041C33.0862 38.8813 36 36.0662 36 30C36 24.2773 33.1523 16 28 16C22.8477 16 20 24.2773 20 30C20 36.0662 22.9138 38.8813 26 39.7041ZM28 20C29.3516 20 32 24.5273 32 30C32 32.24 31.48 36 28 36C24.52 36 24 32.24 24 30C24 24.5273 26.6484 20 28 20Z" fill="#343A40" fill-opacity="0.3"/>
</svg>
